<svg version="1.1" id="Layer_1" xmlns="http://www.w3.org/2000/svg" xmlns:xlink="http://www.w3.org/1999/xlink" x="0px" y="0px"
	 width="100%" viewBox="0 0 1024 1024" enable-background="new 0 0 1024 1024" xml:space="preserve">
<path fill="#000000" opacity="1.000000" stroke="none" 
	d="
M576.321045,399.409668 
	C559.717041,409.273376 542.305420,412.967316 523.356384,409.978363 
	C525.606995,402.706116 528.172974,400.788452 534.708069,400.804169 
	C564.176147,400.874969 584.546143,386.527435 597.450684,360.760773 
	C603.760315,348.162292 607.154053,334.671204 608.525757,320.469666 
	C604.564941,319.275635 601.034119,320.714355 597.564636,321.384125 
	C578.571960,325.050781 560.437500,330.987305 545.055725,343.259583 
	C533.630249,352.375336 526.154480,363.990265 523.703003,379.648071 
	C528.257568,375.749207 532.119324,372.395966 536.031921,369.103119 
	C546.129944,360.604614 556.969849,353.204254 568.409546,346.599396 
	C572.651489,344.150269 573.440979,347.047546 575.133911,349.494629 
	C577.258911,352.566345 576.056763,354.038086 573.171265,355.671631 
	C549.833435,368.884003 529.924744,386.085419 513.382629,407.227448 
	C510.841522,410.475159 510.297516,413.197937 511.872772,417.166229 
	C519.554199,436.516724 524.259949,456.461395 523.358643,477.516418 
	C522.552246,496.353119 504.205719,507.580536 488.822693,498.290497 
	C480.743347,493.411285 478.066193,485.479370 477.722290,476.585724 
	C476.901855,455.368073 484.160004,436.298615 494.276764,418.257568 
	C497.304932,412.857483 497.252533,409.178772 494.115021,403.898529 
	C476.626495,374.466095 452.380768,353.149414 420.372772,340.817780 
	C416.809418,339.444916 413.129120,338.367706 409.474579,337.246155 
	C408.736938,337.019745 407.870392,337.213409 407.058533,337.213409 
	C405.717438,339.700562 406.293396,342.248688 406.292114,344.685822 
	C406.264832,397.182678 406.245209,449.679657 406.372894,502.176270 
	C406.383667,506.602661 405.275635,508.512421 400.489594,508.303864 
	C395.451599,508.084290 396.067566,504.814758 396.067413,501.689728 
	C396.065216,462.025635 396.054413,422.361511 396.109161,382.697479 
	C396.134460,364.373383 396.290253,346.049438 396.420105,327.725677 
	C396.426941,326.760132 396.744537,325.796814 397.091766,323.860199 
	C444.470673,333.368530 479.767548,359.079865 504.167755,400.995087 
	C508.639923,396.694946 512.539917,393.633331 512.848267,387.137115 
	C514.238892,357.841675 529.671631,337.773834 555.253723,324.799683 
	C574.109497,315.236847 594.432495,311.169312 615.244690,308.970337 
	C618.057983,308.673065 619.387207,309.791077 619.141418,312.604675 
	C617.001892,337.095551 612.310974,360.770508 596.972412,380.974213 
	C591.370667,388.352692 584.591431,394.451630 576.321045,399.409668 
M488.302307,463.370422 
	C487.313324,469.478333 486.592499,475.586151 488.593750,481.641663 
	C490.464600,487.302704 495.599091,491.348541 500.726715,491.243439 
	C506.038910,491.134552 510.819702,487.125977 512.319031,481.151672 
	C513.125061,477.940186 513.756775,474.662415 513.680481,471.286011 
	C513.342529,456.323761 510.066742,441.945862 505.131317,427.897278 
	C504.712341,426.704620 504.461395,425.244843 502.123871,424.709137 
	C495.538727,436.515778 490.789551,449.113159 488.302307,463.370422 
z"/>
<path fill="#000000" opacity="1.000000" stroke="none" 
	d="
M323.358704,630.000183 
	C323.384064,636.994995 323.157104,643.504639 323.532654,649.979309 
	C323.751251,653.747314 322.580750,655.161316 318.872498,655.044983 
	C315.546448,654.940552 312.615448,655.206665 312.667236,650.291931 
	C312.840881,633.805908 312.707092,617.316650 312.691223,600.828674 
	C312.690308,599.872192 312.691101,598.915771 311.761780,597.680969 
	C303.460205,616.837341 295.158630,635.993774 286.857086,655.150146 
	C286.210754,655.081543 285.564453,655.012939 284.918121,654.944336 
	C275.349457,636.807678 268.856750,617.252930 259.201172,598.727844 
	C258.934540,603.023987 258.453125,607.319641 258.441528,611.616455 
	C258.406525,624.602051 258.529236,637.588318 258.653473,650.573730 
	C258.675049,652.829224 258.388397,654.576660 255.580734,654.617126 
	C252.962311,654.654846 252.691986,652.959839 252.691925,650.956421 
	C252.691269,628.472534 252.680695,605.988708 252.672745,583.504822 
	C252.672043,581.540649 252.943634,579.582642 255.474442,579.702148 
	C259.013824,579.869263 263.352600,577.694519 265.430939,582.752441 
	C269.036591,591.527161 272.615295,600.313416 276.288513,609.059875 
	C280.010468,617.922302 283.833221,626.742432 288.202576,636.962891 
	C293.034668,625.798218 297.356628,615.994263 301.523926,606.125000 
	C304.760162,598.460632 307.999878,590.787109 310.867340,582.981384 
	C312.982147,577.224487 317.487488,579.725159 321.025726,579.782349 
	C324.973419,579.846069 323.549011,583.242554 323.541809,585.541199 
	C323.495850,600.194214 323.423187,614.847290 323.358704,630.000183 
z"/>
<path fill="#000000" opacity="1.000000" stroke="none" 
	d="
M612.108582,467.255432 
	C617.050110,487.344147 607.765625,503.851166 589.697083,507.737366 
	C572.419006,511.453583 555.181458,497.594330 554.618835,479.881897 
	C554.260437,468.598419 558.836060,458.795166 563.127930,448.923187 
	C568.704285,436.096680 575.745300,424.000580 582.604370,411.827057 
	C582.906128,411.291443 583.433044,410.882690 584.505371,409.693970 
	C595.126831,428.443970 605.243652,446.809998 612.108582,467.255432 
M567.278931,465.721436 
	C565.789246,470.310181 564.175781,474.966766 564.677185,479.822052 
	C565.853027,491.207489 576.011475,499.970154 585.967041,498.521149 
	C597.623779,496.824524 606.065857,485.353760 603.293457,473.672668 
	C599.701294,458.538177 592.796204,444.683990 584.844238,431.367279 
	C584.720764,431.160522 584.269165,431.149719 583.589783,430.916931 
	C577.391968,441.836884 572.203857,453.285431 567.278931,465.721436 
z"/>
<path fill="#000000" opacity="1.000000" stroke="none" 
	d="
M490.778992,620.444458 
	C491.231232,624.573792 494.050842,627.153687 496.051849,630.146301 
	C501.209045,637.859253 506.599609,645.416138 511.919983,653.068420 
	C505.366577,656.774170 499.017120,655.202820 495.488800,649.540161 
	C490.470032,641.485535 485.344299,633.497375 480.240753,625.495850 
	C479.257690,623.954590 478.279053,622.345337 476.453857,621.643494 
	C471.312927,619.666626 468.123749,621.832275 468.096161,627.383911 
	C468.059692,634.712524 467.919312,642.049011 468.200012,649.367676 
	C468.362915,653.615601 466.548676,654.968201 462.623993,654.969543 
	C458.947876,654.970764 456.734741,654.282898 456.763153,649.756714 
	C456.901306,627.770996 456.766632,605.783630 456.733643,583.796814 
	C456.730591,581.757690 456.648163,579.295837 459.501740,579.459534 
	C469.619843,580.040161 479.841339,578.263489 489.862305,580.444092 
	C500.797485,582.823730 505.638489,588.166870 506.912201,598.515564 
	C507.905792,606.588196 503.498444,613.402588 494.301178,618.087097 
	C493.128174,618.684570 492.041504,619.451477 490.778992,620.444458 
M494.825714,597.425110 
	C494.391052,593.624756 492.962189,590.306335 489.755005,588.067627 
	C484.065735,584.096436 477.604034,584.005371 471.062164,584.719543 
	C468.548584,584.993896 467.967255,586.928040 467.955597,589.101624 
	C467.927917,594.259644 467.789856,599.421509 467.935211,604.575134 
	C468.270111,616.449280 465.647614,616.407166 480.021393,615.746033 
	C490.329346,615.271973 495.923859,608.609497 494.825714,597.425110 
z"/>
<path fill="#000000" opacity="1.000000" stroke="none" 
	d="
M767.263306,654.185059 
	C752.664062,636.164673 738.378906,618.374817 724.083862,600.592957 
	C722.860718,599.071411 721.571472,597.602905 718.968323,596.360291 
	C718.968323,599.750061 718.956177,603.139832 718.970337,606.529541 
	C719.030212,620.858154 719.116699,635.186707 719.138123,649.515381 
	C719.140686,651.242065 719.858093,653.566223 717.535095,654.272583 
	C714.268799,655.265869 712.636292,654.028625 712.675842,650.302612 
	C712.810303,637.641113 712.726196,624.977295 712.720825,612.314331 
	C712.717041,603.483582 712.628418,594.651733 712.754150,585.822876 
	C712.783936,583.728516 711.465820,580.649414 714.757629,579.922302 
	C717.800964,579.250122 720.928467,579.058899 723.345947,582.172913 
	C730.700378,591.646179 738.249817,600.967957 745.706421,610.362061 
	C751.402344,617.537964 757.057190,624.746521 762.770874,631.908264 
	C763.655579,633.017151 764.273560,634.524170 766.099182,634.739014 
	C767.225525,632.890137 766.719482,630.854858 766.728210,628.937317 
	C766.792725,614.775452 766.776978,600.613159 766.789307,586.451050 
	C766.790283,585.284973 766.792664,584.118286 766.829590,582.952942 
	C766.889954,581.047241 767.617615,579.777954 769.778931,579.731445 
	C772.133362,579.680847 773.069214,580.942322 773.138733,583.111450 
	C773.160034,583.777466 773.189087,584.443787 773.189270,585.109924 
	C773.196045,606.770142 773.171143,628.430359 773.228821,650.090454 
	C773.239807,654.215759 772.003296,656.295288 767.263306,654.185059 
z"/>
<path fill="#000000" opacity="1.000000" stroke="none" 
	d="
M413.241211,625.818848 
	C417.016724,634.925354 420.683563,643.662292 424.310242,652.415833 
	C424.476044,652.815979 424.280731,653.365723 424.255890,653.805359 
	C416.342285,656.873474 413.296082,655.620483 410.440704,648.239014 
	C409.600739,646.067505 408.683868,643.925842 407.800934,641.770996 
	C402.838501,629.660461 404.483429,631.550598 391.930695,631.379578 
	C387.936981,631.325195 383.904755,631.675781 379.957123,631.237610 
	C374.221985,630.601013 370.912659,632.584351 369.365570,638.315857 
	C368.203461,642.621155 366.096161,646.665283 364.515259,650.865417 
	C363.137115,654.526733 360.844788,655.715454 357.260254,654.092712 
	C356.447998,651.947144 357.649689,650.375854 358.320496,648.740051 
	C367.154633,627.196838 375.993835,605.655579 384.914673,584.148193 
	C385.876984,581.828125 386.334991,578.871521 389.942688,578.761841 
	C393.744324,578.646240 394.496460,581.561951 395.584564,584.112427 
	C401.458771,597.880737 407.283203,611.670288 413.241211,625.818848 
M398.418945,619.016602 
	C394.886047,611.089722 392.414795,602.681091 387.586121,593.910095 
	C382.919556,604.861389 378.811829,614.664246 375.055267,625.739075 
	C382.184479,625.739075 388.430878,625.803162 394.675323,625.719360 
	C399.926727,625.648865 400.338165,624.958618 398.418945,619.016602 
z"/>
<path fill="#000000" opacity="1.000000" stroke="none" 
	d="
M612.758545,650.790588 
	C621.966797,628.284363 631.036133,606.126160 640.167847,583.993652 
	C641.140991,581.635132 641.683655,578.826172 645.300049,578.737183 
	C648.557373,578.657043 649.550415,580.812622 650.541992,583.156799 
	C660.065247,605.670410 669.584778,628.185608 679.083862,650.709351 
	C679.462219,651.606628 679.625488,652.594666 679.880371,653.509705 
	C673.029358,656.915283 668.913330,655.435303 666.130005,648.713379 
	C664.348572,644.411377 662.466858,640.148926 660.777222,635.811401 
	C659.509155,632.556274 657.259338,631.319153 653.828430,631.373352 
	C646.842102,631.484009 639.844299,631.551880 632.866516,631.264893 
	C628.800415,631.097717 626.810730,632.951721 625.506531,636.483215 
	C623.606567,641.628052 621.375549,646.650208 619.450745,651.786560 
	C618.454529,654.444885 616.501587,654.610779 614.217346,654.368958 
	C611.985291,654.132690 612.023865,652.779358 612.758545,650.790588 
M646.541626,600.947266 
	C645.476379,599.205933 645.501099,596.728394 642.441956,595.477722 
	C638.088684,605.217957 634.078247,614.965759 630.535461,625.623413 
	C639.331360,625.680115 647.302124,626.400635 656.025940,624.957336 
	C652.735352,616.679626 649.751221,609.173157 646.541626,600.947266 
z"/>
<path fill="#000000" opacity="1.000000" stroke="none" 
	d="
M538.826660,590.110046 
	C537.264282,586.493591 534.190735,584.022827 533.662781,579.864624 
	C536.857361,579.641785 539.804993,579.405457 542.756531,579.239563 
	C545.362549,579.093018 546.427368,580.892822 547.568359,582.875610 
	C552.882751,592.111572 558.298645,601.289612 563.732361,610.456238 
	C564.549194,611.834167 565.008240,613.576050 567.316895,614.418701 
	C571.809143,608.409607 574.905579,601.424500 578.816895,594.954163 
	C581.313293,590.824646 583.592407,586.561340 585.897644,582.319275 
	C587.676086,579.046631 590.150696,578.508606 593.249207,579.975281 
	C593.992432,581.665649 592.984619,582.716370 592.348267,583.827759 
	C586.227234,594.519287 580.190063,605.260925 573.904358,615.854980 
	C571.114746,620.556519 569.403320,625.220093 569.823425,630.888000 
	C570.301758,637.341370 569.703552,643.867065 569.831604,650.356262 
	C569.933777,655.533447 566.073303,654.425354 563.204346,654.824219 
	C560.111328,655.254272 558.617554,653.939148 558.665527,650.615051 
	C558.771301,643.288757 558.551697,635.957764 558.660400,628.631531 
	C558.711609,625.178833 557.930542,622.152100 556.121704,619.182495 
	C550.319153,609.656311 544.692261,600.023132 538.826660,590.110046 
z"/>
<path fill="#000000" opacity="1.000000" stroke="none" 
	d="
M419.349182,698.557129 
	C417.838623,703.789856 416.068390,700.530396 414.855011,698.913818 
	C411.519592,694.469971 408.415375,689.852600 404.741669,684.623535 
	C403.244110,690.593140 405.272095,696.030212 403.087219,700.775757 
	C400.770111,700.710144 400.781830,699.359741 400.769073,698.265442 
	C400.699493,692.284485 400.699951,686.302368 400.715515,680.320862 
	C400.718475,679.179504 400.640045,677.867126 402.007446,677.353699 
	C403.561920,676.770142 404.533997,677.806213 405.336121,678.888489 
	C408.487976,683.141235 411.593933,687.427979 415.168793,692.320618 
	C416.815887,686.940552 415.315308,681.694092 418.113556,677.176819 
	C420.378113,684.070190 419.561859,691.146484 419.349182,698.557129 
z"/>
<path fill="#000000" opacity="1.000000" stroke="none" 
	d="
M486.084229,700.047485 
	C484.803375,695.139648 481.889038,694.087708 477.385559,694.253174 
	C472.663361,694.426697 473.689758,700.393860 469.859375,700.980103 
	C468.460846,699.553772 469.258392,698.255249 469.718964,697.091003 
	C472.043213,691.215698 474.453308,685.374268 476.841370,679.524292 
	C477.357544,678.259949 477.978882,677.001465 479.598145,677.064575 
	C480.955414,677.117432 481.570618,678.237305 482.009216,679.320312 
	C484.506653,685.486755 487.062317,691.633118 489.380432,697.867249 
	C490.569061,701.063904 489.393127,702.064819 486.084229,700.047485 
M479.839050,685.447815 
	C476.369141,686.032043 476.862122,688.621460 476.706940,690.992798 
	C478.560669,691.709839 480.079102,692.086426 481.422791,690.653137 
	C481.780884,688.833923 480.770996,687.443420 479.839050,685.447815 
z"/>
<path fill="#000000" opacity="1.000000" stroke="none" 
	d="
M682.947510,694.782227 
	C676.078857,692.272034 673.110718,697.206299 670.218262,701.530334 
	C668.060913,699.800598 669.129822,698.562073 669.579346,697.447205 
	C671.936951,691.600159 674.356079,685.777710 676.783203,679.958984 
	C677.724060,677.703308 679.739197,675.467529 681.273193,678.485107 
	C684.827698,685.476929 687.470703,692.932068 690.625977,700.543579 
	C684.522095,702.055847 685.755676,696.413940 682.947510,694.782227 
M678.356934,685.672119 
	C677.552551,687.366272 676.024780,688.871460 676.991821,691.341675 
	C678.623535,691.433411 680.317810,692.246948 682.357056,690.394226 
	C680.809204,688.867859 681.898010,685.891724 678.356934,685.672119 
z"/>
<path fill="#000000" opacity="1.000000" stroke="none" 
	d="
M535.165955,680.276794 
	C540.467346,675.156860 546.330017,675.325378 548.587463,680.364258 
	C546.727600,682.102112 545.218567,680.183777 543.598938,679.823242 
	C541.547791,679.366699 539.908997,679.844849 538.954590,681.698486 
	C537.810242,683.920837 539.453491,685.105469 541.035645,686.068115 
	C542.444519,686.925415 544.044617,687.462646 545.486389,688.272827 
	C548.607727,690.027161 550.803284,692.468262 549.899719,696.321838 
	C548.950439,700.370361 545.671875,701.851807 542.003845,701.885681 
	C539.016785,701.913208 535.704224,701.660767 534.161743,698.160095 
	C535.969543,695.691040 537.443665,697.492432 538.997620,698.104187 
	C541.521545,699.097961 544.154541,699.330017 545.363586,696.395142 
	C546.564270,693.480713 544.185669,692.352722 541.969177,691.333862 
	C534.147034,687.738037 533.438660,686.623352 535.165955,680.276794 
z"/>
<path fill="#000000" opacity="1.000000" stroke="none" 
	d="
M588.717163,680.387146 
	C585.764099,681.424500 586.142212,683.629517 586.479492,685.515564 
	C586.906372,687.903015 589.020447,687.037476 590.563904,687.127380 
	C592.170471,687.221008 593.919922,686.891968 594.895996,688.658325 
	C594.239563,690.807007 592.483215,690.353821 591.134033,690.301636 
	C587.948669,690.178223 586.213196,691.030945 586.199280,694.732056 
	C586.183716,698.860229 588.723694,698.669006 591.485413,698.723755 
	C593.181458,698.757263 595.082764,698.276733 596.929932,700.352966 
	C592.362427,702.143005 588.149719,701.300049 584.053833,701.040588 
	C582.225891,700.924805 582.148743,698.955566 582.132935,697.459717 
	C582.075073,691.979126 582.092529,686.497864 582.066406,681.016907 
	C582.054138,678.440002 583.121155,676.781799 585.880005,676.951477 
	C589.500671,677.174255 593.380432,675.651855 597.045166,678.225830 
	C594.745178,681.454712 591.634705,679.709717 588.717163,680.387146 
z"/>
<path fill="#000000" opacity="1.000000" stroke="none" 
	d="
M442.618408,692.163269 
	C441.547638,683.682251 444.757355,678.403931 451.570648,676.967102 
	C456.717865,675.881592 461.049866,677.846863 462.186188,681.800537 
	C460.833191,683.028748 459.806610,681.988037 458.652893,681.355408 
	C452.823486,678.158630 448.440918,680.107727 446.737396,686.603027 
	C445.660156,690.710571 446.920593,694.245361 449.821655,697.054138 
	C452.658813,699.801086 455.853912,699.157776 458.939453,697.176270 
	C460.060455,696.456360 461.451630,695.546326 462.310944,697.282227 
	C463.095520,698.867065 461.649933,699.664368 460.503632,700.323486 
	C453.117706,704.570435 444.190979,700.910767 442.618408,692.163269 
z"/>
<path fill="#000000" opacity="1.000000" stroke="none" 
	d="
M525.548889,679.463074 
	C523.122375,679.891052 520.984070,680.116577 518.839844,680.227722 
	C516.372864,680.355591 515.951843,681.994873 515.832092,683.984619 
	C515.697632,686.219788 516.973877,686.769836 518.901184,686.952332 
	C520.737671,687.126221 522.988647,686.184814 524.239075,688.529602 
	C523.583435,690.932007 521.588257,690.191589 520.124634,690.179749 
	C517.235840,690.156372 515.473511,690.736267 515.330200,694.253296 
	C515.168335,698.222229 517.391602,698.342285 520.292725,698.541504 
	C522.278076,698.677917 524.628967,697.518494 526.325562,699.629700 
	C524.331604,701.189819 514.514343,702.035706 512.854919,700.834351 
	C511.947601,700.177429 511.775299,699.175171 511.769501,698.174744 
	C511.734802,692.193604 511.740112,686.212280 511.724243,680.231018 
	C511.719727,678.530579 512.357544,677.158630 514.169678,677.081787 
	C517.645264,676.934387 521.134094,676.939148 524.610535,677.067749 
	C525.679993,677.107361 526.366882,677.955444 525.548889,679.463074 
z"/>
<path fill="#000000" opacity="1.000000" stroke="none" 
	d="
M645.801636,699.331299 
	C638.346191,689.312500 641.786438,677.990051 652.327698,676.776550 
	C656.290405,676.320312 659.620117,677.378723 661.967346,680.893677 
	C659.597046,683.081543 658.363037,681.295654 657.035400,680.601868 
	C653.483337,678.745544 650.551331,679.749573 648.121643,682.534668 
	C645.080200,686.020935 644.997559,692.492920 647.889343,695.977112 
	C650.325745,698.912781 653.381470,699.527039 656.856812,697.969543 
	C657.461792,697.698486 658.014771,697.313049 658.599243,696.994263 
	C659.680603,696.404602 660.869263,695.913696 661.594299,697.336487 
	C662.291382,698.704163 661.191711,699.559021 660.208984,700.143677 
	C655.405945,703.000916 650.690247,702.493835 645.801636,699.331299 
z"/>
<path fill="#000000" opacity="1.000000" stroke="none" 
	d="
M341.481689,683.760864 
	C340.226257,686.441833 339.941589,688.893372 340.325897,691.419434 
	C341.296844,697.801392 346.140106,700.393188 352.024353,697.706543 
	C353.177917,697.179871 354.141052,695.955017 356.480743,697.087463 
	C354.704773,701.214294 350.972504,701.797852 347.457855,701.930054 
	C341.440002,702.156372 336.507385,697.033875 335.822357,690.425171 
	C335.126556,683.712585 339.180237,678.075989 345.583679,676.852112 
	C350.293701,675.951782 354.142761,677.763550 355.681885,682.413757 
	C350.606384,680.823181 345.355621,676.734802 341.481689,683.760864 
z"/>
<path fill="#000000" opacity="1.000000" stroke="none" 
	d="
M563.321777,699.406677 
	C562.707764,694.812683 563.063049,690.672363 563.550598,686.528687 
	C563.987610,682.814270 563.585388,679.698975 558.577759,680.169128 
	C557.698669,680.251587 557.041870,679.721497 556.210327,678.163330 
	C562.542542,676.236389 568.404785,676.714417 574.720337,677.848755 
	C574.189453,678.906616 573.970032,679.692017 573.772949,679.686401 
	C566.849487,679.490173 566.945984,684.064453 567.245789,688.983948 
	C567.437927,692.135681 567.438660,695.324097 567.191772,698.469849 
	C566.981995,701.143372 565.765564,702.301514 563.321777,699.406677 
z"/>
<path fill="#000000" opacity="1.000000" stroke="none" 
	d="
M614.360413,695.825684 
	C614.142151,697.989624 614.963989,700.081543 612.683472,700.939575 
	C610.990417,700.795959 610.826721,699.589050 610.771667,698.410522 
	C610.686157,696.581299 610.975647,694.695618 610.634827,692.924500 
	C609.620056,687.650513 615.050232,679.251770 602.743530,679.571167 
	C607.340210,676.352478 617.174927,676.184509 621.031982,678.436523 
	C620.950195,678.746582 620.885437,679.317932 620.775085,679.326843 
	C614.229736,679.858276 613.650818,684.139648 614.293518,689.356873 
	C614.536194,691.327332 614.348450,693.350830 614.360413,695.825684 
z"/>
<path fill="#000000" opacity="1.000000" stroke="none" 
	d="
M373.694458,701.342285 
	C372.078735,701.332397 370.898499,701.203125 369.752411,701.346619 
	C365.718994,701.851685 364.484833,699.951111 364.640503,696.148560 
	C364.851288,691.000122 364.663452,685.836060 364.689484,680.678955 
	C364.696167,679.354309 364.677063,677.721252 366.516815,677.709839 
	C368.401886,677.698059 368.296722,679.360840 368.309204,680.668762 
	C368.350433,684.993958 368.554932,689.333862 368.276093,693.640869 
	C368.030823,697.430115 369.583557,698.700256 373.166534,698.592712 
	C374.929596,698.539673 377.187653,697.283264 378.450806,699.823608 
	C377.557831,702.042908 375.645142,701.105896 373.694458,701.342285 
z"/>
<path fill="#000000" opacity="1.000000" stroke="none" 
	d="
M434.100464,690.967346 
	C434.037354,693.928040 434.031372,696.404480 433.892212,698.873413 
	C433.835236,699.884155 433.372955,700.862244 432.190491,700.979126 
	C430.714966,701.124939 430.022034,700.082947 430.002197,698.855042 
	C429.898224,692.421997 429.868378,685.987122 429.897217,679.553162 
	C429.903137,678.231567 430.748932,677.376526 432.169617,677.561768 
	C433.575165,677.744995 434.046326,678.884888 434.071503,680.083740 
	C434.144318,683.547852 434.101410,687.014465 434.100464,690.967346 
z"/>
<path fill="#000000" opacity="1.000000" stroke="none" 
	d="
M390.769287,678.744995 
	C390.970551,685.282349 391.056549,691.406494 391.029419,697.530212 
	C391.023102,698.956482 391.071075,700.851135 389.025696,700.929749 
	C386.914093,701.010864 386.922607,699.113586 386.900208,697.679077 
	C386.809723,691.884033 386.734833,686.085449 386.851959,680.292175 
	C386.902802,677.777222 387.594574,675.587097 390.769287,678.744995 
z"/>
<path fill="#000000" opacity="1.000000" stroke="none" 
	d="
M629.594604,700.178162 
	C628.326355,693.365173 629.011292,686.876770 628.916626,680.407349 
	C628.896179,679.013000 629.351685,677.658142 631.142517,677.720276 
	C632.936584,677.782593 633.197815,679.181824 633.204773,680.565063 
	C633.234131,686.387939 633.265808,692.211975 633.177490,698.033752 
	C633.146423,700.085022 632.567017,701.852905 629.594604,700.178162 
z"/>
<path fill="#000000" opacity="1.000000" stroke="none" 
	d="
M588.028870,675.375977 
	C588.215881,672.411987 589.934631,670.976868 592.566284,670.642334 
	C592.915588,670.597900 593.811890,671.590576 593.724060,671.884644 
	C592.926514,674.555237 590.949524,675.648193 588.028870,675.375977 
z"/>
<path fill="#000000" opacity="1.000000" stroke="none" 
	d="
M393.414307,671.753723 
	C391.921204,673.966980 390.110870,675.112000 387.564362,675.547852 
	C388.749084,670.795776 390.502899,669.692322 393.414307,671.753723 
z"/>
</svg>