<svg width="704" height="120" viewBox="0 0 704 120" fill="none" xmlns="http://www.w3.org/2000/svg">
<path d="M108.267 54.4561C98.295 60.3923 87.8384 62.6154 76.4584 60.8166C77.81 56.44 79.351 55.2859 83.2757 55.2954C100.973 55.338 113.206 46.7034 120.956 31.1965C124.745 23.6145 126.784 15.4953 127.607 6.94851C125.229 6.22992 123.108 7.09577 121.025 7.49885C109.618 9.70551 98.7277 13.2782 89.4901 20.6639C82.6284 26.15 78.1388 33.14 76.6666 42.5632C79.4018 40.2168 81.7211 38.1988 84.0708 36.2171C90.1352 31.1025 96.6452 26.6488 103.515 22.6739C106.063 21.2 106.537 22.9436 107.554 24.4163C108.83 26.2649 108.108 27.1506 106.375 28.1337C92.3594 36.0852 80.4031 46.4373 70.4686 59.161C68.9425 61.1156 68.6158 62.7542 69.5619 65.1424C74.175 76.7879 77.001 88.791 76.4598 101.462C75.9755 112.799 64.9574 119.555 55.719 113.965C50.8669 111.028 49.2591 106.255 49.0526 100.902C48.5599 88.133 52.9188 76.6566 58.9945 65.7992C60.813 62.5493 60.7816 60.3354 58.8973 57.1576C48.3945 39.4446 33.8336 26.6158 14.611 19.1944C12.471 18.3682 10.2607 17.7199 8.06599 17.0449C7.623 16.9087 7.10259 17.0252 6.61502 17.0252C5.80962 18.522 6.15551 20.0555 6.15474 21.5223C6.13836 53.1159 6.12657 84.7096 6.20326 116.303C6.20973 118.967 5.54429 120.116 2.67 119.991C-0.355595 119.859 0.0143288 117.891 0.0142369 116.01C0.0129175 92.1396 0.0064297 68.269 0.0393089 44.3984C0.0545024 33.3706 0.148065 22.3429 0.226048 11.3153C0.230153 10.7342 0.420888 10.1545 0.629418 8.989C29.0831 14.7113 50.2809 30.1849 64.9346 55.4103C67.6203 52.8224 69.9625 50.9798 70.1477 47.0703C70.9828 29.4397 80.2511 17.3625 95.6146 9.5544C106.939 3.7993 119.144 1.35138 131.642 0.0279909C133.332 -0.150913 134.13 0.521928 133.983 2.21521C132.698 16.9543 129.881 31.2023 120.669 43.3613C117.305 47.8018 113.233 51.4723 108.267 54.4561ZM55.4065 92.9489C54.8125 96.6248 54.3796 100.301 55.5815 103.945C56.705 107.352 59.7886 109.787 62.868 109.723C66.0583 109.658 68.9294 107.245 69.8299 103.65C70.3139 101.717 70.6933 99.7447 70.6475 97.7127C70.4445 88.7081 68.4772 80.0552 65.5132 71.6005C65.2616 70.8828 65.1109 70.0042 63.7071 69.6818C59.7523 76.7873 56.9002 84.3687 55.4065 92.9489Z" fill="#A0824B"/>
<path d="M130.194 95.426C133.218 107.441 127.536 117.313 116.479 119.637C105.905 121.86 95.3564 113.571 95.0121 102.978C94.7928 96.2292 97.5929 90.3661 100.219 84.462C103.632 76.7908 107.941 69.5564 112.138 62.2757C112.323 61.9554 112.645 61.7109 113.302 61C119.802 72.2139 125.993 83.1981 130.194 95.426ZM102.76 94.5086C101.848 97.253 100.861 100.038 101.167 102.942C101.887 109.751 108.104 114.992 114.196 114.125C121.33 113.11 126.496 106.25 124.799 99.264C122.601 90.2124 118.375 81.9266 113.509 73.9622C113.433 73.8386 113.157 73.8321 112.741 73.6929C108.948 80.2238 105.774 87.0709 102.76 94.5086Z" fill="#537D77"/>
<path d="M543.086 94.0556C552.294 71.5493 561.363 49.3911 570.495 27.2586C571.468 24.9001 572.011 22.0912 575.627 22.0022C578.885 21.922 579.878 24.0776 580.869 26.4218C590.393 48.9354 599.912 71.4506 609.411 93.9743C609.79 94.8716 609.953 95.8596 610.208 96.7747C603.357 100.18 599.241 98.7003 596.457 91.9784C594.676 87.6764 592.794 83.4139 591.105 79.0764C589.836 75.8213 587.587 74.5841 584.156 74.6383C577.169 74.749 570.172 74.8169 563.194 74.5299C559.128 74.3627 557.138 76.2167 555.834 79.7482C553.934 84.893 551.703 89.9152 549.778 95.0515C548.782 97.7099 546.829 97.8758 544.545 97.6339C542.313 97.3977 542.351 96.0443 543.086 94.0556ZM576.869 44.2122C575.804 42.4709 575.828 39.9934 572.769 38.7427C568.416 48.4829 564.406 58.2307 560.863 68.8884C569.659 68.9451 577.629 69.6656 586.353 68.2223C583.063 59.9446 580.079 52.4381 576.869 44.2122Z" fill="#A0824B"/>
<path d="M343.568 69.0838C347.344 78.1903 351.011 86.9272 354.638 95.6808C354.803 96.0809 354.608 96.6307 354.583 97.0703C346.67 100.138 343.623 98.8854 340.768 91.5039C339.928 89.3324 339.011 87.1908 338.128 85.0359C333.166 72.9254 334.811 74.8155 322.258 74.6445C318.264 74.5901 314.232 74.9407 310.284 74.5025C304.549 73.8659 301.24 75.8493 299.693 81.5808C298.531 85.8861 296.423 89.9302 294.843 94.1303C293.464 97.7917 291.172 98.9804 287.588 97.3576C286.775 95.2121 287.977 93.6408 288.648 92.005C297.482 70.4618 306.321 48.9205 315.242 27.4131C316.204 25.0931 316.662 22.1364 320.27 22.0268C324.072 21.9112 324.824 24.8269 325.912 27.3774C331.786 41.1457 337.61 54.9352 343.568 69.0838ZM328.746 62.2815C325.213 54.3546 322.742 45.946 317.913 37.175C313.247 48.1263 309.139 57.9292 305.383 69.004C312.512 69.004 318.758 69.0681 325.003 68.9843C330.254 68.9138 330.665 68.2235 328.746 62.2815Z" fill="#A0824B"/>
<path d="M253.686 73.2652C253.711 80.26 253.484 86.7696 253.86 93.2443C254.079 97.0123 252.908 98.4263 249.2 98.31C245.874 98.2055 242.943 98.4716 242.994 93.5569C243.168 77.0709 243.034 60.5816 243.018 44.0936C243.018 43.1372 243.018 42.1807 242.089 40.9459C233.787 60.1023 225.486 79.2587 217.184 98.4151C216.538 98.3465 215.892 98.2779 215.245 98.2093C205.677 80.0726 199.184 60.5179 189.528 41.9928C189.262 46.289 188.78 50.5846 188.769 54.8814C188.734 67.867 188.856 80.8533 188.981 93.8387C189.002 96.0942 188.716 97.8416 185.908 97.8821C183.29 97.9198 183.019 96.2248 183.019 94.2214C183.019 71.7375 183.008 49.2537 183 26.7698C182.999 24.8056 183.271 22.8476 185.802 22.9671C189.341 23.1342 193.68 20.9595 195.758 26.0174C199.364 34.7921 202.943 43.5784 206.616 52.3248C210.338 61.1873 214.16 70.0074 218.53 80.2279C223.362 69.0632 227.684 59.2592 231.851 49.39C235.087 41.7256 238.327 34.0521 241.195 26.2464C243.309 20.4895 247.815 22.9901 251.353 23.0473C255.301 23.111 253.876 26.5075 253.869 28.8062C253.823 43.4592 253.75 58.1123 253.686 73.2652Z" fill="#A0824B"/>
<path d="M469.154 33.375C467.591 29.7585 464.518 27.2878 463.99 23.1296C467.185 22.9067 470.132 22.6704 473.084 22.5045C475.69 22.358 476.755 24.1578 477.896 26.1406C483.21 35.3765 488.626 44.5546 494.06 53.7212C494.876 55.0991 495.335 56.841 497.644 57.6837C502.136 51.6746 505.233 44.6894 509.144 38.2191C511.641 34.0896 513.92 29.8263 516.225 25.5842C518.003 22.3116 520.478 21.7736 523.576 23.2402C524.32 24.9306 523.312 25.9813 522.675 27.0927C516.554 37.7842 510.517 48.5259 504.232 59.1199C501.442 63.8215 499.731 68.485 500.151 74.153C500.629 80.6063 500.031 87.132 500.159 93.6212C500.261 98.7984 496.401 97.6903 493.532 98.0892C490.439 98.5192 488.945 97.2041 488.993 93.88C489.099 86.5537 488.879 79.2227 488.988 71.8965C489.039 68.4438 488.258 65.417 486.449 62.4474C480.646 52.9213 475.019 43.2881 469.154 33.375Z" fill="#A0824B"/>
<path d="M421.106 63.7094C421.559 67.8387 424.378 70.4186 426.379 73.4113C431.536 81.1242 436.927 88.6811 442.247 96.3334C435.694 100.039 429.344 98.4678 425.816 92.8051C420.797 84.7505 415.672 76.7623 410.568 68.7608C409.585 67.2195 408.606 65.6103 406.781 64.9084C401.64 62.9316 398.451 65.0972 398.423 70.6489C398.387 77.9775 398.247 85.314 398.527 92.6326C398.69 96.8805 396.876 98.2331 392.951 98.2345C389.275 98.2357 387.062 97.5478 387.09 93.0217C387.229 71.0359 387.094 49.0486 387.061 27.0618C387.058 25.0226 386.975 22.5608 389.829 22.7245C399.947 23.3051 410.169 21.5284 420.19 23.709C431.125 26.0887 435.966 31.4318 437.24 41.7805C438.233 49.8531 433.826 56.6675 424.628 61.352C423.455 61.9495 422.369 62.7164 421.106 63.7094ZM425.153 40.6901C424.718 36.8897 423.29 33.5713 420.082 31.3326C414.393 27.3614 407.931 27.2703 401.389 27.9845C398.876 28.2588 398.295 30.193 398.283 32.3666C398.255 37.5246 398.117 42.6865 398.263 47.8401C398.597 59.7142 395.975 59.6721 410.349 59.011C420.657 58.5369 426.251 51.8744 425.153 40.6901Z" fill="#A0824B"/>
<path d="M697.591 97.45C682.991 79.4296 668.706 61.6398 654.411 43.8579C653.188 42.3363 651.899 40.8678 649.296 39.6252C649.296 43.015 649.284 46.4048 649.298 49.7945C649.358 64.1231 649.444 78.4516 649.465 92.7803C649.468 94.507 650.185 96.8312 647.862 97.5375C644.596 98.5308 642.964 97.2936 643.003 93.5676C643.138 80.9061 643.054 68.2422 643.048 55.5793C643.044 46.7485 642.956 37.9167 643.081 29.0878C643.111 26.9935 641.793 23.9144 645.085 23.1872C648.128 22.5151 651.256 22.3238 653.673 25.4378C661.028 34.9111 668.577 44.2329 676.034 53.627C681.73 60.8029 687.385 68.0115 693.098 75.1732C693.983 76.2821 694.601 77.7891 696.427 78.0039C697.553 76.1551 697.047 74.1198 697.056 72.2023C697.12 58.0404 697.104 43.8781 697.117 29.716C697.118 28.5499 697.12 27.3832 697.157 26.2179C697.217 24.3122 697.945 23.0429 700.106 22.9964C702.461 22.9458 703.397 24.2073 703.466 26.3764C703.487 27.0424 703.516 27.7087 703.517 28.3749C703.523 50.0351 703.498 71.6953 703.556 93.3554C703.567 97.4807 702.331 99.5602 697.591 97.45Z" fill="#A0824B"/>
</svg>
